<mxfile host="app.diagrams.net" modified="2021-11-21T11:17:46.025Z" agent="5.0 (Windows NT 10.0; Win64; x64) AppleWebKit/537.36 (KHTML, like Gecko) Chrome/96.0.4664.45 Safari/537.36" etag="a_Md6dbTUTps3dOfczUs" version="15.8.3" type="github">
  <diagram id="VDs6-D46SK1I8d_1nCAj" name="Page-1">
    <mxGraphModel dx="677" dy="380" grid="1" gridSize="10" guides="1" tooltips="1" connect="1" arrows="1" fold="1" page="1" pageScale="1" pageWidth="850" pageHeight="1100" math="0" shadow="0">
      <root>
        <mxCell id="0" />
        <mxCell id="1" parent="0" />
        <mxCell id="SGQB_jdghTBYEu_aLkwp-3" style="edgeStyle=orthogonalEdgeStyle;rounded=0;orthogonalLoop=1;jettySize=auto;html=1;entryX=0.5;entryY=0;entryDx=0;entryDy=0;" edge="1" parent="1" source="SGQB_jdghTBYEu_aLkwp-1" target="SGQB_jdghTBYEu_aLkwp-2">
          <mxGeometry relative="1" as="geometry" />
        </mxCell>
        <mxCell id="SGQB_jdghTBYEu_aLkwp-1" value="Start" style="strokeWidth=2;html=1;shape=mxgraph.flowchart.start_1;whiteSpace=wrap;" vertex="1" parent="1">
          <mxGeometry x="365" y="40" width="90" height="40" as="geometry" />
        </mxCell>
        <mxCell id="SGQB_jdghTBYEu_aLkwp-5" style="edgeStyle=orthogonalEdgeStyle;rounded=0;orthogonalLoop=1;jettySize=auto;html=1;entryX=0.5;entryY=0;entryDx=0;entryDy=0;entryPerimeter=0;" edge="1" parent="1" source="SGQB_jdghTBYEu_aLkwp-2" target="SGQB_jdghTBYEu_aLkwp-4">
          <mxGeometry relative="1" as="geometry" />
        </mxCell>
        <mxCell id="SGQB_jdghTBYEu_aLkwp-2" value="X,Y,Z" style="shape=parallelogram;html=1;strokeWidth=2;perimeter=parallelogramPerimeter;whiteSpace=wrap;rounded=1;arcSize=12;size=0.23;" vertex="1" parent="1">
          <mxGeometry x="360" y="110" width="100" height="40" as="geometry" />
        </mxCell>
        <mxCell id="SGQB_jdghTBYEu_aLkwp-8" value="" style="edgeStyle=orthogonalEdgeStyle;rounded=0;orthogonalLoop=1;jettySize=auto;html=1;" edge="1" parent="1" source="SGQB_jdghTBYEu_aLkwp-4" target="SGQB_jdghTBYEu_aLkwp-7">
          <mxGeometry relative="1" as="geometry" />
        </mxCell>
        <mxCell id="SGQB_jdghTBYEu_aLkwp-11" value="" style="edgeStyle=orthogonalEdgeStyle;rounded=0;orthogonalLoop=1;jettySize=auto;html=1;" edge="1" parent="1" source="SGQB_jdghTBYEu_aLkwp-4" target="SGQB_jdghTBYEu_aLkwp-10">
          <mxGeometry relative="1" as="geometry" />
        </mxCell>
        <mxCell id="SGQB_jdghTBYEu_aLkwp-4" value="x+y &amp;gt; z" style="strokeWidth=2;html=1;shape=mxgraph.flowchart.decision;whiteSpace=wrap;" vertex="1" parent="1">
          <mxGeometry x="375" y="180" width="70" height="60" as="geometry" />
        </mxCell>
        <mxCell id="SGQB_jdghTBYEu_aLkwp-24" style="edgeStyle=orthogonalEdgeStyle;rounded=0;orthogonalLoop=1;jettySize=auto;html=1;" edge="1" parent="1" source="SGQB_jdghTBYEu_aLkwp-7" target="SGQB_jdghTBYEu_aLkwp-21">
          <mxGeometry relative="1" as="geometry">
            <Array as="points">
              <mxPoint x="595" y="605" />
            </Array>
          </mxGeometry>
        </mxCell>
        <mxCell id="SGQB_jdghTBYEu_aLkwp-7" value="Print&amp;nbsp;&lt;br&gt;(&quot;No&quot;)" style="shape=parallelogram;perimeter=parallelogramPerimeter;whiteSpace=wrap;html=1;fixedSize=1;strokeWidth=2;" vertex="1" parent="1">
          <mxGeometry x="550" y="480" width="90" height="40" as="geometry" />
        </mxCell>
        <mxCell id="SGQB_jdghTBYEu_aLkwp-9" value="No" style="text;html=1;strokeColor=none;fillColor=none;align=center;verticalAlign=middle;whiteSpace=wrap;rounded=0;" vertex="1" parent="1">
          <mxGeometry x="510" y="180" width="60" height="30" as="geometry" />
        </mxCell>
        <mxCell id="SGQB_jdghTBYEu_aLkwp-12" style="edgeStyle=orthogonalEdgeStyle;rounded=0;orthogonalLoop=1;jettySize=auto;html=1;" edge="1" parent="1" source="SGQB_jdghTBYEu_aLkwp-10" target="SGQB_jdghTBYEu_aLkwp-7">
          <mxGeometry relative="1" as="geometry" />
        </mxCell>
        <mxCell id="SGQB_jdghTBYEu_aLkwp-15" value="" style="edgeStyle=orthogonalEdgeStyle;rounded=0;orthogonalLoop=1;jettySize=auto;html=1;" edge="1" parent="1" source="SGQB_jdghTBYEu_aLkwp-10" target="SGQB_jdghTBYEu_aLkwp-14">
          <mxGeometry relative="1" as="geometry" />
        </mxCell>
        <mxCell id="SGQB_jdghTBYEu_aLkwp-10" value="x+z &amp;gt; y" style="strokeWidth=2;html=1;shape=mxgraph.flowchart.decision;whiteSpace=wrap;" vertex="1" parent="1">
          <mxGeometry x="375" y="280" width="70" height="60" as="geometry" />
        </mxCell>
        <mxCell id="SGQB_jdghTBYEu_aLkwp-13" value="No" style="text;html=1;strokeColor=none;fillColor=none;align=center;verticalAlign=middle;whiteSpace=wrap;rounded=0;" vertex="1" parent="1">
          <mxGeometry x="510" y="280" width="60" height="30" as="geometry" />
        </mxCell>
        <mxCell id="SGQB_jdghTBYEu_aLkwp-16" style="edgeStyle=orthogonalEdgeStyle;rounded=0;orthogonalLoop=1;jettySize=auto;html=1;entryX=0.5;entryY=0;entryDx=0;entryDy=0;" edge="1" parent="1" source="SGQB_jdghTBYEu_aLkwp-14" target="SGQB_jdghTBYEu_aLkwp-7">
          <mxGeometry relative="1" as="geometry" />
        </mxCell>
        <mxCell id="SGQB_jdghTBYEu_aLkwp-19" style="edgeStyle=orthogonalEdgeStyle;rounded=0;orthogonalLoop=1;jettySize=auto;html=1;entryX=0.5;entryY=0;entryDx=0;entryDy=0;" edge="1" parent="1" source="SGQB_jdghTBYEu_aLkwp-14" target="SGQB_jdghTBYEu_aLkwp-18">
          <mxGeometry relative="1" as="geometry" />
        </mxCell>
        <mxCell id="SGQB_jdghTBYEu_aLkwp-14" value="y+z &amp;gt; x" style="strokeWidth=2;html=1;shape=mxgraph.flowchart.decision;whiteSpace=wrap;" vertex="1" parent="1">
          <mxGeometry x="375" y="370" width="70" height="60" as="geometry" />
        </mxCell>
        <mxCell id="SGQB_jdghTBYEu_aLkwp-17" value="No" style="text;html=1;strokeColor=none;fillColor=none;align=center;verticalAlign=middle;whiteSpace=wrap;rounded=0;" vertex="1" parent="1">
          <mxGeometry x="510" y="370" width="60" height="30" as="geometry" />
        </mxCell>
        <mxCell id="SGQB_jdghTBYEu_aLkwp-25" style="edgeStyle=orthogonalEdgeStyle;rounded=0;orthogonalLoop=1;jettySize=auto;html=1;" edge="1" parent="1" source="SGQB_jdghTBYEu_aLkwp-18" target="SGQB_jdghTBYEu_aLkwp-21">
          <mxGeometry relative="1" as="geometry" />
        </mxCell>
        <mxCell id="SGQB_jdghTBYEu_aLkwp-18" value="Print&amp;nbsp;&lt;br&gt;(&quot;Yes&quot;)" style="shape=parallelogram;perimeter=parallelogramPerimeter;whiteSpace=wrap;html=1;fixedSize=1;strokeWidth=2;" vertex="1" parent="1">
          <mxGeometry x="365" y="480" width="90" height="40" as="geometry" />
        </mxCell>
        <mxCell id="SGQB_jdghTBYEu_aLkwp-21" value="Stop" style="ellipse;whiteSpace=wrap;html=1;strokeWidth=2;" vertex="1" parent="1">
          <mxGeometry x="380" y="580" width="60" height="50" as="geometry" />
        </mxCell>
      </root>
    </mxGraphModel>
  </diagram>
</mxfile>
